<svg xmlns="http://www.w3.org/2000/svg" xmlns:xlink="http://www.w3.org/1999/xlink" xmlns:lucid="lucid" width="1763.46" height="659.16"><g transform="translate(-186.96090906739198 105.47194425112923)" lucid:page-tab-id="0_0"><path d="M1575.34-21.22c0-3.3 2.7-6 6-6h343.08c3.3 0 6 2.7 6 6v138.1c0 3.33-2.7 6-6 6h-343.08c-3.3 0-6-2.67-6-6zM279.35 86.83c-13.97 0-25.3-10.77-25.3-24.05 0-10.62 6.85-19.58 17.48-22.86-.6-31.23 41.54-37.24 58.4-25.22 8.43-18.03 50.6-12.02 50.6 6 25.28-6 50.58 18.04 33.7 48.1 16.88 24.04 0 54.1-33.7 42.07-8.44 15.63-42.17 15.63-50.6 0-16.86 12.02-50.58 6-50.58-24.04z" stroke="#5e5e5e" stroke-width="3" fill="#fff"/><use xlink:href="#a" transform="matrix(1,0,0,1,266.0550897637395,14.676666666666677) translate(31.851851851851855 54.15277777777778)"/><path d="M840.55-27.74c0-3.3 2.52-6.92 5.63-8.06l68.43-25.05c3.13-1.13 8.34-2.06 11.65-2.06h103.43c3.3 0 8.52.92 11.63 2.05l68.44 25.05c3.1 1.14 5.63 4.75 5.63 8.06V2.5c0 3.32-2.52 6.93-5.63 8.07L1041.3 35.6c-3.1 1.15-8.3 2.07-11.62 2.07H926.25c-3.3 0-8.52-.92-11.64-2.06L846.2 10.58c-3.1-1.14-5.63-4.75-5.63-8.07z" stroke="#5e5e5e" stroke-width="3" fill="#b8decd"/><use xlink:href="#b" transform="matrix(1,0,0,1,852.5503870273491,-50.90730389158091) translate(17.907407407407433 41.84027777777778)"/><path d="M892.93 358.14c0-3.32 2.7-6 6-6h170c3.3 0 6 2.68 6 6v75.26c0 3.3-2.7 6-6 6h-170c-3.3 0-6-2.7-6-6z" stroke="#5e5e5e" stroke-width="3" fill="#f8ad96"/><use xlink:href="#c" transform="matrix(1,0,0,1,904.9293290961327,364.13786248003186) translate(45.94444444444445 37.77777777777778)"/><path d="M206.96-79.47c0-3.32 2.7-6 6-6H598.5c3.32 0 6 2.68 6 6v44.4c0 3.3-2.68 6-6 6H212.96c-3.3 0-6-2.7-6-6z" fill="none"/><use xlink:href="#d" transform="matrix(1,0,0,1,218.96090906739198,-73.47194425112923) translate(0 26.54123263888889)"/><use xlink:href="#e" transform="matrix(1,0,0,1,218.96090906739198,-73.47194425112923) translate(46.52994791666667 26.54123263888889)"/><use xlink:href="#f" transform="matrix(1,0,0,1,218.96090906739198,-73.47194425112923) translate(182.23090277777783 26.54123263888889)"/><path d="M1116.92 358.14c0-3.32 2.68-6 6-6h120.36c3.3 0 6 2.68 6 6v35.14c0 3.32-2.7 6-6 6h-120.36c-3.32 0-6-2.68-6-6z" fill="none"/><use xlink:href="#g" transform="matrix(1,0,0,1,1128.916029770849,364.13786248003186) translate(0 19.17230902777778)"/><use xlink:href="#h" transform="matrix(1,0,0,1,1128.916029770849,364.13786248003186) translate(45.84418402777778 19.17230902777778)"/><path d="M1297.54 372.7c0-3.33 2.7-6 6-6h169c3.32 0 6 2.67 6 6v47.8c0 3.3-2.68 6-6 6h-169c-3.3 0-6-2.7-6-6z" stroke="#5e5e5e" stroke-width="3" fill="#b8decd"/><use xlink:href="#i" transform="matrix(1,0,0,1,1309.5423600751951,378.68622420903836) translate(19.246913580246904 22.27777777777778)"/><path d="M471.97 49.23h6v6h-6z" fill="url(#j)"/><path d="M477.97 49.23h1014.58v268.8H477.97z" fill="url(#k)"/><path d="M1492.55 49.23h6v6h-6z" fill="url(#l)"/><path d="M471.97 55.23h1026.58v256.8H471.97z" fill="url(#m)"/><path d="M1492.55 312.03h6v6h-6z" fill="url(#n)"/><path d="M477.97 49.23h1014.58v268.8H477.97z" fill="url(#o)"/><path d="M471.97 312.03h6v6h-6z" fill="url(#p)"/><path d="M471.97 55.23h1026.58v256.8H471.97z" fill="url(#q)"/><path d="M477.97 55.23h1014.58v256.8H477.97z" stroke="#6f7681" fill="#fffdec"/><path d="M477.97 47.36V36.34h1.5v11.02h-1.5m8.18-8.62c3.95-.18 2.35 5.15 2.66 8.62h-1.4v-5.38c0-1.38-.37-2.18-1.74-2.13-3.2.1-1.96 4.53-2.18 7.5h-1.42l-.05-8.43h1.35c.04.44-.05 1.06.08 1.42.5-.98 1.3-1.56 2.72-1.6m18.44 4.5c-.05 2.88-1.8 4.3-4.63 4.3-2.7 0-4.45-1.42-4.45-4.18v-7.02H497c.35 3.95-1.48 9.95 2.97 9.95 4.53 0 2.84-5.92 3.15-9.96h1.47v6.9m6.4-4.5c3.95-.18 2.35 5.15 2.66 8.62h-1.43v-5.38c0-1.38-.35-2.18-1.73-2.13-3.2.1-1.95 4.53-2.18 7.5h-1.42l-.04-8.43h1.33c.03.44-.05 1.06.08 1.42.5-.98 1.3-1.56 2.7-1.6m4.77-1.65v-1.34h1.42v1.33h-1.42zm0 10.26v-8.44h1.42v8.44h-1.42m5.06-2.1c-.08 1.08.8 1.3 1.7 1v1.06c-1.47.44-3.1.22-3.1-1.74v-5.64h-1v-1.02h1.08l.4-1.92h.93v1.92h1.57v1.02h-1.56v5.33m9.8-6.35l-3.83 9.82c-.62 1.24-1.65 2.26-3.6 1.86v-1.06c1.73.26 2.35-.9 2.84-2.22l-3.32-8.4h1.5l2.54 6.93 2.4-6.93h1.47m12.7.04c-.22-2.13-5.47-2.4-5.5.1.6 3.32 7 .6 7.23 5.28.14 3.46-5.37 3.86-7.77 2.44-.76-.44-1.25-1.15-1.47-2.04l1.46-.3c.22 2.48 6.26 2.8 6.26-.06 0-3.46-6.9-.62-7.2-5.24-.22-3.65 6.45-3.74 7.96-1.5.22.3.35.7.5 1.1m5.23 1.1c-1.77 0-2.12 1.48-2.12 3.25s.4 3.33 2.13 3.33c1.08 0 1.83-.63 1.92-1.7l1.43.1c-.27 1.64-1.38 2.7-3.3 2.7-2.62 0-3.37-1.8-3.64-4.4-.43-4.13 4.5-5.8 6.55-2.84.17.3.22.62.3.97l-1.42.13c-.17-.93-.7-1.55-1.82-1.55m8.2-1.1c2.8 0 3.8 1.85 3.72 4.7h-6c0 1.78.63 2.98 2.36 3.02 1.15.05 1.9-.53 2.18-1.3l1.24.37c-.5 1.24-1.64 2-3.42 2-2.58 0-3.9-1.65-3.87-4.45.06-2.72 1.17-4.36 3.8-4.36zm2.3 3.6c.27-2.68-3.38-3.43-4.3-1.26-.14.3-.28.75-.28 1.24h4.58m7.33-3.6c3.96-.18 2.36 5.15 2.67 8.62h-1.42v-5.38c0-1.38-.36-2.18-1.73-2.13-3.2.1-1.96 4.53-2.18 7.5h-1.42l-.05-8.43h1.33c.05.44-.04 1.06.1 1.42.48-.98 1.28-1.56 2.7-1.6m8.14 0c2.8 0 3.82 1.86 3.73 4.7h-6c0 1.8.62 3 2.36 3.03 1.15.05 1.9-.53 2.17-1.3l1.25.37c-.5 1.24-1.65 2-3.42 2-2.58 0-3.9-1.65-3.87-4.45.03-2.72 1.15-4.36 3.77-4.36zm2.3 3.6c.28-2.67-3.37-3.42-4.3-1.25-.14.3-.27.75-.27 1.24h4.58" fill="#282c33"/><path d="M1297.54 242.45c0-3.3 2.7-6 6-6h169c3.32 0 6 2.7 6 6v47.8c0 3.32-2.68 6-6 6h-169c-3.3 0-6-2.68-6-6z" stroke="#5e5e5e" stroke-width="3" fill="#f8ad96"/><use xlink:href="#r" transform="matrix(1,0,0,1,1309.5423600751951,248.4513438827106) translate(11.253086419753075 22.27777777777778)"/><path d="M984.43 236.8V330" stroke="#5e5e5e" stroke-width="3" fill="none"/><path d="M985.93 236.82h-3v-1.54h3z" fill="#5e5e5e"/><path d="M984.42 345.78l-4.63-14.26h9.26z" stroke="#5e5e5e" stroke-width="3" fill="#5e5e5e"/><path d="M981.04 40.67l.03 79.94" stroke="#5e5e5e" stroke-width="3" fill="none"/><path d="M982.54 40.7h-3v-1.53h3z" fill="#5e5e5e"/><path d="M981.07 136.37l-4.64-14.26h9.27z" stroke="#5e5e5e" stroke-width="3" fill="#5e5e5e"/><path d="M893.93 261.6c0-3.3 2.7-6 6-6h74.52c3.3 0 6 2.7 6 6v35.15c0 3.3-2.7 6-6 6h-74.52c-3.3 0-6-2.7-6-6z" fill="none"/><use xlink:href="#s" transform="matrix(1,0,0,1,905.9293290961326,267.60624191790384) translate(0 19.17230902777778)"/><path d="M1297.54 479.88c0-3.3 2.7-6 6-6h169c3.32 0 6 2.7 6 6v47.8c0 3.32-2.68 6-6 6h-169c-3.3 0-6-2.68-6-6z" stroke="#5e5e5e" stroke-width="3" fill="#d5d2e2"/><use xlink:href="#t" transform="matrix(1,0,0,1,1309.5423600751951,485.8830802150591) translate(28.475308641975303 22.27777777777778)"/><path d="M513.1 101.57c0-3.3 2.7-6 6-6h214c3.32 0 6 2.7 6 6V249.6c0 3.32-2.68 6-6 6h-214c-3.3 0-6-2.68-6-6z" stroke="#5e5e5e" stroke-width="3" fill="#b8decd"/><use xlink:href="#u" transform="matrix(1,0,0,1,525.106771704219,107.57126516963876) translate(20.845679012345684 17.77777777777778)"/><path d="M530.1 154.07c0-3.3 2.7-6 6-6h180c3.32 0 6 2.7 6 6v76.38c0 3.32-2.68 6-6 6h-180c-3.3 0-6-2.68-6-6z" stroke="#5e5e5e" stroke-width="3" fill="#58c2bf"/><use xlink:href="#v" transform="matrix(1,0,0,1,542.106771704219,160.07126516963876) translate(12.487654320987659 17.77777777777778)"/><path d="M421.12 58.2l14.37 3.58 11.56 3.44 9.34 3.24 7.83 3.12 6.74 3.04 5.93 3 5.28 2.96 4.76 2.97 4.34 3 4 3 3.68 3.05 3.44 3.12 3.2 3.2 3.04 3.27 2.86 3.38 2.7 3.52 2.6 3.67 2.44 3.86 2.34 4.06 2.23 4.3 2.13 4.6.24.58" stroke="#5e5e5e" stroke-width="2" fill="none"/><path d="M421.38 57.24l-.48 1.94-.98-.25.45-1.95z" fill="#5e5e5e"/><path d="M531.13 144.6l-9.02-11.98 8.77-3.02z" stroke="#5e5e5e" stroke-width="2" fill="#5e5e5e"/><path d="M739.1 325.54c0-3.3 2.7-6 6-6h63.7c3.32 0 6 2.7 6 6v35.15c0 3.3-2.68 6-6 6h-63.7c-3.3 0-6-2.7-6-6z" fill="none"/><use xlink:href="#w" transform="matrix(1,0,0,1,751.106771704219,331.5425436534828) translate(0 19.17230902777778)"/><path d="M889.93 395.74l-1.2-.03-2.6-.15-2.52-.27-2.45-.36-2.4-.45-2.35-.56-2.32-.63-2.3-.75-2.27-.85-2.27-.96-2.28-1.06-2.3-1.2-2.33-1.35-2.36-1.5-2.42-1.7-2.5-1.88-2.56-2.13-2.68-2.42-2.8-2.75-2.98-3.17-3.2-3.7-3.46-4.4-3.86-5.3-4.42-6.66-5.35-8.87-7.45-13.6-32.36-63.45-5.35-8.86-4.42-6.66-3.85-5.32-3.48-4.38-3.2-3.7-2.96-3.17-2.8-2.77-2.7-2.4-2.56-2.14-2.48-1.9-2.42-1.67-2.37-1.5-2.33-1.35-2.3-1.2-2.28-1.08-2.28-.96-1.7-.63" stroke="#5e5e5e" stroke-width="3" fill="none"/><path d="M891.43 394.27v3l-1.57-.03.06-3z" fill="#5e5e5e"/><path d="M717 213.27l14.85-2.16-1.56 9.14z" stroke="#5e5e5e" stroke-width="3" fill="#5e5e5e"/><path d="M528.1 164.73l-18.2-30.5-7.6-11.47-4.76-6.46-3.47-4.28-2.78-3.12-2.37-2.4-2.1-1.95-1.9-1.62-1.82-1.4-1.76-1.23-1.76-1.1-1.8-1.04-1.94-.97-2.14-.97-2.5-1-3.3-1.12-5.9-1.68-23.16-6.3" stroke="#5e5e5e" stroke-width="2" fill="none"/><path d="M528.6 167.54l-1.38-2.32 1.4-.83z" fill="#5e5e5e"/><path d="M424.36 81.3l15 .1-2.93 8.8z" stroke="#5e5e5e" stroke-width="2" fill="#5e5e5e"/><path d="M909.2 69.3c0-3.32 2.7-6 6-6h50.57c3.3 0 6 2.68 6 6v35.14c0 3.3-2.7 6-6 6H915.2c-3.3 0-6-2.7-6-6z" fill="none"/><use xlink:href="#x" transform="matrix(1,0,0,1,921.2054203224798,75.29443483409665) translate(0 19.17230902777778)"/><path d="M1077.93 395.77l16.46.07m16.45.06l32.9.12m16.47.06l32.92.12m16.45.06l32.9.13m16.47.05l16.45.06" stroke="#5e5e5e" stroke-width="3" fill="none"/><path d="M1077.98 394.28v3h-1.55v-3z" fill="#5e5e5e"/><path d="M1291.2 396.57l-14.3 4.58.04-9.27z" stroke="#5e5e5e" stroke-width="3" fill="#5e5e5e"/><path d="M1077.93 369.6l5.53-.1 6.5-.4 3.15-.34m15-2.42l4.05-.95 4.93-1.38 4.77-1.55 4.67-1.74 4.6-1.94 4.6-2.17.95-.5m13.13-7.64l.3-.2 5.36-3.73 6.02-4.58 7.45-6.18 4.65-4.24m11.24-10.23l18.72-17.17 3.86-3.2m12.05-9.26l2.9-2.02 5-3.16 4.75-2.75 4.64-2.44 4.6-2.16 4.6-1.94.15-.05m14.45-4.66l4.9-1.14 5.36-1.03 4.68-.7" stroke="#5e5e5e" stroke-width="3" fill="none"/><path d="M1078 371.1l-1.57.04v-3l1.5-.03z" fill="#5e5e5e"/><path d="M1291.2 266.67l-13.94 5.54-.6-9.24z" stroke="#5e5e5e" stroke-width="3" fill="#5e5e5e"/><path d="M1077.93 419.53l7.3.15 7.18.45m14.4 1.74l.42.06 6.3 1.2 5.97 1.4 5.7 1.6 5.53 1.8 4 1.48m13.23 5.87l4.85 2.54 6.26 3.62 7.35 4.68 6.22 4.34m11.8 8.4l21.64 15.64 1.93 1.23m12.4 7.46l5 2.62 5.5 2.58 5.42 2.28 5.42 2.02 5.34 1.73m14.06 3.46l4.12.8 6.74.98 3.46.37" stroke="#5e5e5e" stroke-width="3" fill="none"/><path d="M1078 418.03l-.06 3-1.5-.03v-3z" fill="#5e5e5e"/><path d="M1291.2 500.83l-14.5 3.88.5-9.25z" stroke="#5e5e5e" stroke-width="3" fill="#5e5e5e"/><path d="M725.1 175.04l.7-.04 1.05-.1 1.04-.16 1.02-.2 1.03-.24 1.02-.3 1.03-.32 1.03-.38 1.04-.44 1.05-.5 1.06-.55 1.1-.62 1.1-.7 1.16-.8 1.2-.92 1.22-1.02 1.3-1.16 1.35-1.33 1.44-1.52 1.52-1.76 1.63-2.06 1.75-2.42 1.92-2.9 2.13-3.5 2.38-4.36 2.75-5.55 3.28-7.38 4.2-10.6 6.5-18.86 20.97-65.05 4.18-10.62 3.28-7.38 2.74-5.55 2.4-4.35 2.12-3.5 1.9-2.9 1.77-2.43L815.1.5l1.52-1.75 1.43-1.53 1.35-1.33 1-.9" stroke="#5e5e5e" stroke-width="3" fill="none"/><path d="M725.18 176.56l-1.57.03v-3l1.52-.04z" fill="#5e5e5e"/><path d="M834.56-10.78L823.1-1.1l-3.5-8.58z" stroke="#5e5e5e" stroke-width="3" fill="#5e5e5e"/><path d="M893.93 148.73c0-3.32 2.7-6 6-6h169c3.3 0 6 2.68 6 6v79.05c0 3.32-2.7 6-6 6h-169c-3.3 0-6-2.68-6-6z" stroke="#5e5e5e" stroke-width="3" fill="#f8ad96"/><use xlink:href="#y" transform="matrix(1,0,0,1,905.9293290961326,154.72830396983989) translate(8.46913580246914 17.77777777777778)"/><path d="M907.33 191.77c0-3.3 2.7-6 6-6h106.4c3.3 0 6 2.7 6 6v36c0 3.33-2.7 6-6 6h-106.4c-3.3 0-6-2.67-6-6z" fill="none"/><use xlink:href="#z" transform="matrix(1,0,0,1,919.3300483205637,197.7746772160439) translate(7.611111111111111 16.5)"/><use xlink:href="#A" transform="matrix(1,0,0,1,919.3300483205637,197.7746772160439) translate(22.22222222222222 16.5)"/><path d="M540 194.44c0-3.3 2.68-6 6-6H706.2c3.32 0 6 2.7 6 6v36c0 3.33-2.68 6-6 6H546c-3.32 0-6-2.67-6-6z" fill="none"/><use xlink:href="#z" transform="matrix(1,0,0,1,551.9906605931079,200.4413438827106) translate(7.611111111111111 16.5)"/><use xlink:href="#B" transform="matrix(1,0,0,1,551.9906605931079,200.4413438827106) translate(22.22222222222222 16.5)"/><use xlink:href="#C" transform="matrix(1,0,0,1,551.9906605931079,200.4413438827106) translate(94.2777777777778 16.5)"/><path d="M1605.04 8.68c0-3.32 2.7-6 6-6h28.4c3.33 0 6 2.68 6 6v28.4c0 3.33-2.67 6-6 6h-28.4c-3.3 0-6-2.67-6-6z" stroke="#5e5e5e" stroke-width="3" fill="#b8decd"/><path d="M1652.73 3.55c0-3.32 2.68-6 6-6h188.3c3.32 0 6 2.68 6 6v38.67c0 3.32-2.68 6-6 6h-188.3c-3.32 0-6-2.68-6-6z" fill="none"/><use xlink:href="#D" transform="matrix(1,0,0,1,1664.727637319358,9.545674120694233) translate(0 17.944444444444443)"/><path d="M1605.04 59.35c0-3.3 2.7-6 6-6h28.4c3.33 0 6 2.7 6 6v28.42c0 3.3-2.67 6-6 6h-28.4c-3.3 0-6-2.7-6-6z" stroke="#5e5e5e" stroke-width="3" fill="#f8ad96"/><path d="M1652.73 54.22c0-3.3 2.68-6 6-6h237.2c3.3 0 6 2.7 6 6V92.9c0 3.3-2.7 6-6 6h-237.2c-3.32 0-6-2.7-6-6z" fill="none"/><use xlink:href="#E" transform="matrix(1,0,0,1,1664.727637319358,60.222340787360906) translate(0 17.944444444444443)"/><path d="M1017.58 139.73V126.4m0-13.32V86.44m0-13.32V59.8" stroke="#5e5e5e" stroke-width="3" fill="none"/><path d="M1019.08 141.23h-3v-1.54h3z" fill="#5e5e5e"/><path d="M1017.58 44.03l4.64 14.26h-9.27z" stroke="#5e5e5e" stroke-width="3" fill="#5e5e5e"/><path d="M1019.4 72.63c0-3.3 2.7-6 6-6h275.92c3.3 0 6 2.7 6 6v35.14c0 3.32-2.7 6-6 6H1025.4c-3.3 0-6-2.68-6-6z" fill="none"/><g><use xlink:href="#F" transform="matrix(1,0,0,1,1031.3995266823702,78.62874560612887) translate(0 19.17230902777778)"/><use xlink:href="#G" transform="matrix(1,0,0,1,1031.3995266823702,78.62874560612887) translate(51.18272569444444 19.17230902777778)"/><use xlink:href="#H" transform="matrix(1,0,0,1,1031.3995266823702,78.62874560612887) translate(158.3984375 19.17230902777778)"/><use xlink:href="#I" transform="matrix(1,0,0,1,1031.3995266823702,78.62874560612887) translate(190.58159722222223 19.17230902777778)"/></g><defs><path fill="#333" d="M190 0L58-211 59 0H30v-248h39L202-35l-2-213h31V0h-41" id="J"/><path fill="#333" d="M100-194c63 0 86 42 84 106H49c0 40 14 67 53 68 26 1 43-12 49-29l28 8c-11 28-37 45-77 45C44 4 14-33 15-96c1-61 26-98 85-98zm52 81c6-60-76-77-97-28-3 7-6 17-6 28h103" id="K"/><path fill="#333" d="M59-47c-2 24 18 29 38 22v24C64 9 27 4 27-40v-127H5v-23h24l9-43h21v43h35v23H59v120" id="L"/><path fill="#333" d="M206 0h-36l-40-164L89 0H53L-1-190h32L70-26l43-164h34l41 164 42-164h31" id="M"/><path fill="#333" d="M100-194c62-1 85 37 85 99 1 63-27 99-86 99S16-35 15-95c0-66 28-99 85-99zM99-20c44 1 53-31 53-75 0-43-8-75-51-75s-53 32-53 75 10 74 51 75" id="N"/><path fill="#333" d="M114-163C36-179 61-72 57 0H25l-1-190h30c1 12-1 29 2 39 6-27 23-49 58-41v29" id="O"/><path fill="#333" d="M143 0L79-87 56-68V0H24v-261h32v163l83-92h37l-77 82L181 0h-38" id="P"/><g id="a"><use transform="matrix(0.06172839506172839,0,0,0.06172839506172839,0,0)" xlink:href="#J"/><use transform="matrix(0.06172839506172839,0,0,0.06172839506172839,15.987654320987653,0)" xlink:href="#K"/><use transform="matrix(0.06172839506172839,0,0,0.06172839506172839,28.333333333333332,0)" xlink:href="#L"/><use transform="matrix(0.06172839506172839,0,0,0.06172839506172839,34.50617283950617,0)" xlink:href="#M"/><use transform="matrix(0.06172839506172839,0,0,0.06172839506172839,50.49382716049382,0)" xlink:href="#N"/><use transform="matrix(0.06172839506172839,0,0,0.06172839506172839,62.8395061728395,0)" xlink:href="#O"/><use transform="matrix(0.06172839506172839,0,0,0.06172839506172839,70.18518518518518,0)" xlink:href="#P"/></g><path fill="#333" d="M137 0h-34L2-248h35l83 218 83-218h36" id="Q"/><path fill="#333" d="M24-231v-30h32v30H24zM24 0v-190h32V0H24" id="R"/><path fill="#333" d="M135-143c-3-34-86-38-87 0 15 53 115 12 119 90S17 21 10-45l28-5c4 36 97 45 98 0-10-56-113-15-118-90-4-57 82-63 122-42 12 7 21 19 24 35" id="S"/><path fill="#333" d="M84 4C-5 8 30-112 23-190h32v120c0 31 7 50 39 49 72-2 45-101 50-169h31l1 190h-30c-1-10 1-25-2-33-11 22-28 36-60 37" id="T"/><path fill="#333" d="M141-36C126-15 110 5 73 4 37 3 15-17 15-53c-1-64 63-63 125-63 3-35-9-54-41-54-24 1-41 7-42 31l-33-3c5-37 33-52 76-52 45 0 72 20 72 64v82c-1 20 7 32 28 27v20c-31 9-61-2-59-35zM48-53c0 20 12 33 32 33 41-3 63-29 60-74-43 2-92-5-92 41" id="U"/><path fill="#333" d="M24 0v-261h32V0H24" id="V"/><path fill="#333" d="M63-220v92h138v28H63V0H30v-248h175v28H63" id="W"/><path fill="#333" d="M96-169c-40 0-48 33-48 73s9 75 48 75c24 0 41-14 43-38l32 2c-6 37-31 61-74 61-59 0-76-41-82-99-10-93 101-131 147-64 4 7 5 14 7 22l-32 3c-4-21-16-35-41-35" id="X"/><path fill="#333" d="M179-190L93 31C79 59 56 82 12 73V49c39 6 53-20 64-50L1-190h34L92-34l54-156h33" id="Y"/><path fill="#333" d="M233-177c-1 41-23 64-60 70L243 0h-38l-65-103H63V0H30v-248c88 3 205-21 203 71zM63-129c60-2 137 13 137-47 0-61-80-42-137-45v92" id="Z"/><path fill="#333" d="M177-190C167-65 218 103 67 71c-23-6-38-20-44-43l32-5c15 47 100 32 89-28v-30C133-14 115 1 83 1 29 1 15-40 15-95c0-56 16-97 71-98 29-1 48 16 59 35 1-10 0-23 2-32h30zM94-22c36 0 50-32 50-73 0-42-14-75-50-75-39 0-46 34-46 75s6 73 46 73" id="aa"/><g id="b"><use transform="matrix(0.06172839506172839,0,0,0.06172839506172839,0,0)" xlink:href="#Q"/><use transform="matrix(0.06172839506172839,0,0,0.06172839506172839,14.382716049382715,0)" xlink:href="#R"/><use transform="matrix(0.06172839506172839,0,0,0.06172839506172839,19.25925925925926,0)" xlink:href="#S"/><use transform="matrix(0.06172839506172839,0,0,0.06172839506172839,30.37037037037037,0)" xlink:href="#T"/><use transform="matrix(0.06172839506172839,0,0,0.06172839506172839,42.71604938271605,0)" xlink:href="#U"/><use transform="matrix(0.06172839506172839,0,0,0.06172839506172839,55.06172839506173,0)" xlink:href="#V"/><use transform="matrix(0.06172839506172839,0,0,0.06172839506172839,59.93827160493827,0)" xlink:href="#W"/><use transform="matrix(0.06172839506172839,0,0,0.06172839506172839,73.45679012345678,0)" xlink:href="#U"/><use transform="matrix(0.06172839506172839,0,0,0.06172839506172839,85.80246913580247,0)" xlink:href="#X"/><use transform="matrix(0.06172839506172839,0,0,0.06172839506172839,96.91358024691358,0)" xlink:href="#L"/><use transform="matrix(0.06172839506172839,0,0,0.06172839506172839,103.08641975308642,0)" xlink:href="#N"/><use transform="matrix(0.06172839506172839,0,0,0.06172839506172839,115.4320987654321,0)" xlink:href="#O"/><use transform="matrix(0.06172839506172839,0,0,0.06172839506172839,122.77777777777779,0)" xlink:href="#Y"/><use transform="matrix(0.06172839506172839,0,0,0.06172839506172839,133.88888888888889,0)" xlink:href="#Z"/><use transform="matrix(0.06172839506172839,0,0,0.06172839506172839,149.87654320987653,0)" xlink:href="#K"/><use transform="matrix(0.06172839506172839,0,0,0.06172839506172839,162.2222222222222,0)" xlink:href="#aa"/><use transform="matrix(0.06172839506172839,0,0,0.06172839506172839,174.56790123456787,0)" xlink:href="#R"/><use transform="matrix(0.06172839506172839,0,0,0.06172839506172839,179.4444444444444,0)" xlink:href="#S"/><use transform="matrix(0.06172839506172839,0,0,0.06172839506172839,190.55555555555551,0)" xlink:href="#L"/><use transform="matrix(0.06172839506172839,0,0,0.06172839506172839,196.72839506172835,0)" xlink:href="#O"/><use transform="matrix(0.06172839506172839,0,0,0.06172839506172839,204.07407407407402,0)" xlink:href="#Y"/></g><path fill="#333" d="M33 0v-248h34V0H33" id="ab"/><g id="c"><use transform="matrix(0.06172839506172839,0,0,0.06172839506172839,0,0)" xlink:href="#ab"/><use transform="matrix(0.06172839506172839,0,0,0.06172839506172839,6.172839506172839,0)" xlink:href="#Q"/><use transform="matrix(0.06172839506172839,0,0,0.06172839506172839,20.555555555555554,0)" xlink:href="#R"/><use transform="matrix(0.06172839506172839,0,0,0.06172839506172839,25.432098765432094,0)" xlink:href="#S"/><use transform="matrix(0.06172839506172839,0,0,0.06172839506172839,36.5432098765432,0)" xlink:href="#T"/><use transform="matrix(0.06172839506172839,0,0,0.06172839506172839,48.88888888888888,0)" xlink:href="#U"/><use transform="matrix(0.06172839506172839,0,0,0.06172839506172839,61.234567901234556,0)" xlink:href="#V"/></g><path fill="#333" d="M525-1215c-186 0-324 162-324 352v367c-5 191 137 352 324 352 189 0 324-159 324-352v-367c4-191-136-352-324-352zm0-165c275 0 490 253 490 533v335c9 280-215 533-490 533S36-232 36-512v-335c-8-279 214-533 489-533" id="ac"/><path fill="#333" d="M530-826c-179 0-312 160-312 342V0H53v-970h165v127c78-99 182-148 312-148 289 0 456 203 456 499V0H819v-484c2-203-95-342-289-342" id="ad"/><g id="d"><use transform="matrix(0.015190972222222224,0,0,0.015190972222222224,0,0)" xlink:href="#ac"/><use transform="matrix(0.015190972222222224,0,0,0.015190972222222224,17.651909722222225,0)" xlink:href="#ad"/></g><path fill="#333" d="M1018-991c257 0 359 224 359 507V0h-166v-484c0-228-64-342-193-342-155-1-215 166-215 342V0H637l-1-484c0-228-64-342-193-342-159-1-225 164-225 342V0H53v-970h165v68c59-59 134-89 225-89 133 0 229 56 286 168 46-112 142-168 289-168" id="ae"/><path fill="#333" d="M816-616c-46-109-154-210-294-210-133 0-258 109-301 210h595zM31-484c0-260 230-507 491-507 282 0 495 254 487 541H196c10 148 163 311 326 306 147-5 277-104 326-215l166 28C947-150 753 16 522 21 260 27 31-223 31-484" id="af"/><path fill="#333" d="M68-580C-45-823 215-987 454-987c229 0 422 106 446 301l-161 34c-17-73-62-125-139-149-121-38-274-36-352 29-25 21-38 44-38 71 0 66 59 112 178 131 86 13 176 12 261 32 115 27 244 96 244 266 0 81-40 141-102 191C645 38 359 49 192-49 101-102 48-180 33-282l163-35c5 118 149 172 287 172 93 0 238-46 238-127 0-45-37-74-103-103-48-21-337-53-386-71-61-22-144-92-164-134" id="ag"/><path fill="#333" d="M484-144c91 0 275-43 275-120v-184c-54 18-283 13-339 27-84 21-172 73-172 157 0 80 79 120 236 120zm27-847c168 0 413 106 413 260v563c0 15 16 23 48 26-4 64-6 118-6 163-81-4-138-29-172-76-80 51-181 76-304 76C213 21 75-75 75-266c0-155 132-276 270-302-15-8 340-16 395-49 13-7 20-20 21-39-1 24-2 8-2-49 0-71-154-124-234-124-152 0-248 58-288 173L79-690c32-191 203-301 432-301" id="ah"/><path fill="#333" d="M192-484c0 176 132 340 304 340 176 0 296-170 296-340 0-175-125-342-296-342-172 0-304 166-304 342zM962-87c7 262-205 470-468 470C247 383 70 200 36-22l162-27c41 178 140 267 297 267 189 0 305-150 302-345C718-28 618 21 496 21 226 21 26-209 26-484c0-263 209-507 470-507 123 0 224 50 301 151v-130h165v883" id="ai"/><g id="e"><use transform="matrix(0.015190972222222224,0,0,0.015190972222222224,0,0)" xlink:href="#ae"/><use transform="matrix(0.015190972222222224,0,0,0.015190972222222224,23.956163194444446,0)" xlink:href="#af"/><use transform="matrix(0.015190972222222224,0,0,0.015190972222222224,41.501736111111114,0)" xlink:href="#ag"/><use transform="matrix(0.015190972222222224,0,0,0.015190972222222224,57.19401041666667,0)" xlink:href="#ag"/><use transform="matrix(0.015190972222222224,0,0,0.015190972222222224,72.88628472222223,0)" xlink:href="#ah"/><use transform="matrix(0.015190972222222224,0,0,0.015190972222222224,89.53559027777779,0)" xlink:href="#ai"/><use transform="matrix(0.015190972222222224,0,0,0.015190972222222224,106.7013888888889,0)" xlink:href="#af"/></g><path fill="#333" d="M395 0C260 4 152-110 152-245v-560H6v-165c76 0 121-15 136-44 7-13 10-65 10-156h165v200h235v165H317v560c-9 115 138 72 235 80V0H395" id="aj"/><path fill="#333" d="M565-1357L165 0H-13l404-1357h174" id="ak"/><path fill="#333" d="M535-805c-177 0-317 145-317 321V0H51v-970h167v134c85-89 189-134 310-134h218v218c-83-35-153-53-211-53" id="al"/><path fill="#333" d="M30-484c0-265 224-507 485-507 196 0 345 102 446 305H770c-63-93-148-140-255-140-177 0-319 167-319 342 0 176 146 340 319 340 93 0 176-43 249-128h193C846-77 699 21 515 21 254 21 30-224 30-484" id="am"/><path fill="#333" d="M233-1172c-50 0-96-44-96-94 0-49 46-93 96-93s96 43 96 93c0 52-44 94-96 94zM26-970h289V0H150v-805H26v-165" id="an"/><path fill="#333" d="M187-970l311 757c69-168 171-420 308-757h181L592 0H399L3-970h184" id="ao"/><path fill="#333" d="M860-484c0-175-137-342-310-342-172 0-345 169-345 342s167 340 340 340c172 0 315-166 315-340zm-820 0c0-260 250-507 510-507 131 0 236 50 315 149v-515h167V0H865v-128C782-29 675 21 545 21 285 21 40-224 40-484" id="ap"/><g id="f"><use transform="matrix(0.015190972222222224,0,0,0.015190972222222224,0,0)" xlink:href="#ag"/><use transform="matrix(0.015190972222222224,0,0,0.015190972222222224,15.692274305555557,0)" xlink:href="#af"/><use transform="matrix(0.015190972222222224,0,0,0.015190972222222224,33.23784722222223,0)" xlink:href="#ad"/><use transform="matrix(0.015190972222222224,0,0,0.015190972222222224,50.661892361111114,0)" xlink:href="#aj"/><use transform="matrix(0.015190972222222224,0,0,0.015190972222222224,60.414496527777786,0)" xlink:href="#ak"/><use transform="matrix(0.015190972222222224,0,0,0.015190972222222224,70.00000000000001,0)" xlink:href="#al"/><use transform="matrix(0.015190972222222224,0,0,0.015190972222222224,82.25911458333336,0)" xlink:href="#af"/><use transform="matrix(0.015190972222222224,0,0,0.015190972222222224,99.80468750000003,0)" xlink:href="#am"/><use transform="matrix(0.015190972222222224,0,0,0.015190972222222224,115.72482638888891,0)" xlink:href="#af"/><use transform="matrix(0.015190972222222224,0,0,0.015190972222222224,133.27039930555557,0)" xlink:href="#an"/><use transform="matrix(0.015190972222222224,0,0,0.015190972222222224,139.80251736111111,0)" xlink:href="#ao"/><use transform="matrix(0.015190972222222224,0,0,0.015190972222222224,155.46440972222223,0)" xlink:href="#af"/><use transform="matrix(0.015190972222222224,0,0,0.015190972222222224,173.00998263888889,0)" xlink:href="#ap"/></g><path fill="#333" d="M204-1131V0H72v-1355h167l417 834 417-834h172V0h-133v-1131L732-373H584" id="aq"/><path fill="#333" d="M497-108c108 0 303-51 303-143v-220c-2 23-338 19-365 38-104 20-200 82-200 182 0 95 87 143 262 143zm28-871c161 0 405 100 405 248v579c0 27 16 41 48 44-1 21-3 64-5 129-72-4-122-33-151-87-82 59-188 88-318 88C233 22 97-70 97-253c0-145 124-253 248-288 70-20 368-9 427-58 17-9 27-25 29-46-1 7-1-13-1-60 0-84-168-147-260-147-166 0-269 58-309 174l-126-27c31-178 203-274 420-274" id="ar"/><path fill="#333" d="M253 269c88 1 142-24 163-75L519-65 33-957h148l400 735 292-735h140L555 194c-58 142-154 210-302 205V269" id="as"/><g id="g"><use transform="matrix(0.010850694444444444,0,0,0.010850694444444444,0,0)" xlink:href="#aq"/><use transform="matrix(0.010850694444444444,0,0,0.010850694444444444,15.13671875,0)" xlink:href="#ar"/><use transform="matrix(0.010850694444444444,0,0,0.010850694444444444,26.009114583333332,0)" xlink:href="#as"/></g><path fill="#333" d="M540 22C268 22 57-229 57-506v-345c-8-277 211-528 483-528 249 0 439 198 473 423H885c-28-159-165-293-345-293-205 0-353 174-353 382v377c-5 208 148 382 353 382 180 0 318-134 345-293h128C979-176 789 22 540 22" id="at"/><path fill="#333" d="M550-827c-191 0-346 159-346 349V0H72v-957h132v174c85-116 198-174 339-174h204v174c-69-29-134-44-197-44" id="au"/><path fill="#333" d="M52-478c0-256 228-501 485-501 264 0 489 248 480 516H180c0 180 174 355 357 355 148 0 301-110 347-219l130 23C955-140 749 17 537 22 280 28 52-222 52-478zm815-115c-38-129-172-257-330-256-158 0-295 130-340 256h670" id="av"/><path fill="#333" d="M406 0C279 4 176-105 176-232v-595H26v-130c75 0 120-17 137-51 9-17 13-69 13-155h130v206h241v130H306v595c0 70 49 105 146 105 18 0 78-3 95-3V0H406" id="aw"/><g id="h"><use transform="matrix(0.010850694444444444,0,0,0.010850694444444444,0,0)" xlink:href="#at"/><use transform="matrix(0.010850694444444444,0,0,0.010850694444444444,11.979166666666666,0)" xlink:href="#au"/><use transform="matrix(0.010850694444444444,0,0,0.010850694444444444,20.41015625,0)" xlink:href="#av"/><use transform="matrix(0.010850694444444444,0,0,0.010850694444444444,32.6171875,0)" xlink:href="#ar"/><use transform="matrix(0.010850694444444444,0,0,0.010850694444444444,43.66319444444444,0)" xlink:href="#aw"/><use transform="matrix(0.010850694444444444,0,0,0.010850694444444444,50.30381944444444,0)" xlink:href="#av"/></g><path fill="#333" d="M197 0v-115H63V0H30v-248h33v105h134v-105h34V0h-34" id="ax"/><path fill="#333" d="M85-194c31 0 48 13 60 33l-1-100h32l1 261h-30c-2-10 0-23-3-31C134-8 116 4 85 4 32 4 16-35 15-94c0-66 23-100 70-100zm9 24c-40 0-46 34-46 75 0 40 6 74 45 74 42 0 51-32 51-76 0-42-9-74-50-73" id="ay"/><path fill="#333" d="M266 0h-40l-56-210L115 0H75L2-248h35L96-30l15-64 43-154h32l59 218 59-218h35" id="az"/><path fill="#333" d="M117-194c89-4 53 116 60 194h-32v-121c0-31-8-49-39-48C34-167 62-67 57 0H25l-1-190h30c1 10-1 24 2 32 11-22 29-35 61-36" id="aA"/><g id="i"><use transform="matrix(0.06172839506172839,0,0,0.06172839506172839,0,0)" xlink:href="#ax"/><use transform="matrix(0.06172839506172839,0,0,0.06172839506172839,15.987654320987653,0)" xlink:href="#T"/><use transform="matrix(0.06172839506172839,0,0,0.06172839506172839,28.333333333333332,0)" xlink:href="#ay"/><use transform="matrix(0.06172839506172839,0,0,0.06172839506172839,40.67901234567901,0)" xlink:href="#az"/><use transform="matrix(0.06172839506172839,0,0,0.06172839506172839,61.60493827160494,0)" xlink:href="#R"/><use transform="matrix(0.06172839506172839,0,0,0.06172839506172839,66.48148148148148,0)" xlink:href="#aA"/><use transform="matrix(0.06172839506172839,0,0,0.06172839506172839,78.82716049382717,0)" xlink:href="#ay"/><use transform="matrix(0.06172839506172839,0,0,0.06172839506172839,91.17283950617285,0)" xlink:href="#N"/><use transform="matrix(0.06172839506172839,0,0,0.06172839506172839,103.51851851851853,0)" xlink:href="#M"/></g><linearGradient gradientUnits="userSpaceOnUse" id="j" x1="477.97" y1="55.23" x2="471.97" y2="49.23"><stop offset="0%" stop-color="#6f7681" stop-opacity=".25"/><stop offset="50%" stop-color="#6f7681" stop-opacity="0"/></linearGradient><linearGradient gradientUnits="userSpaceOnUse" id="k" x1="477.97" y1="318.03" x2="477.97" y2="49.23"><stop offset="0%" stop-color="#6f7681" stop-opacity="0"/><stop offset="97.77%" stop-color="#6f7681" stop-opacity=".25"/><stop offset="97.76%" stop-color="#6f7681" stop-opacity="0"/><stop offset="100%" stop-color="#6f7681" stop-opacity="0"/></linearGradient><linearGradient gradientUnits="userSpaceOnUse" id="l" x1="1492.55" y1="55.23" x2="1498.55" y2="49.23"><stop offset="0%" stop-color="#6f7681" stop-opacity=".25"/><stop offset="50%" stop-color="#6f7681" stop-opacity="0"/></linearGradient><linearGradient gradientUnits="userSpaceOnUse" id="m" x1="471.97" y1="55.23" x2="1498.55" y2="55.23"><stop offset="0%" stop-color="#6f7681" stop-opacity="0"/><stop offset="99.42%" stop-color="#6f7681" stop-opacity=".25"/><stop offset="99.41%" stop-color="#6f7681" stop-opacity="0"/><stop offset="100%" stop-color="#6f7681" stop-opacity="0"/></linearGradient><linearGradient gradientUnits="userSpaceOnUse" id="n" x1="1492.55" y1="312.03" x2="1498.55" y2="318.03"><stop offset="0%" stop-color="#6f7681" stop-opacity=".25"/><stop offset="50%" stop-color="#6f7681" stop-opacity="0"/></linearGradient><linearGradient gradientUnits="userSpaceOnUse" id="o" x1="477.97" y1="49.23" x2="477.97" y2="318.03"><stop offset="0%" stop-color="#6f7681" stop-opacity="0"/><stop offset="97.77%" stop-color="#6f7681" stop-opacity=".25"/><stop offset="97.76%" stop-color="#6f7681" stop-opacity="0"/><stop offset="100%" stop-color="#6f7681" stop-opacity="0"/></linearGradient><linearGradient gradientUnits="userSpaceOnUse" id="p" x1="477.97" y1="312.03" x2="471.97" y2="318.03"><stop offset="0%" stop-color="#6f7681" stop-opacity=".25"/><stop offset="50%" stop-color="#6f7681" stop-opacity="0"/></linearGradient><linearGradient gradientUnits="userSpaceOnUse" id="q" x1="1498.55" y1="55.23" x2="471.97" y2="55.23"><stop offset="0%" stop-color="#6f7681" stop-opacity="0"/><stop offset="99.42%" stop-color="#6f7681" stop-opacity=".25"/><stop offset="99.41%" stop-color="#6f7681" stop-opacity="0"/><stop offset="100%" stop-color="#6f7681" stop-opacity="0"/></linearGradient><path fill="#333" d="M160-131c35 5 61 23 61 61C221 17 115-2 30 0v-248c76 3 177-17 177 60 0 33-19 50-47 57zm-97-11c50-1 110 9 110-42 0-47-63-36-110-37v79zm0 115c55-2 124 14 124-45 0-56-70-42-124-44v89" id="aB"/><path fill="#333" d="M30-248c118-7 216 8 213 122C240-48 200 0 122 0H30v-248zM63-27c89 8 146-16 146-99s-60-101-146-95v194" id="aC"/><g id="r"><use transform="matrix(0.06172839506172839,0,0,0.06172839506172839,0,0)" xlink:href="#aB"/><use transform="matrix(0.06172839506172839,0,0,0.06172839506172839,14.814814814814813,0)" xlink:href="#U"/><use transform="matrix(0.06172839506172839,0,0,0.06172839506172839,27.160493827160494,0)" xlink:href="#S"/><use transform="matrix(0.06172839506172839,0,0,0.06172839506172839,38.27160493827161,0)" xlink:href="#R"/><use transform="matrix(0.06172839506172839,0,0,0.06172839506172839,43.14814814814815,0)" xlink:href="#X"/><use transform="matrix(0.06172839506172839,0,0,0.06172839506172839,54.25925925925927,0)" xlink:href="#aC"/><use transform="matrix(0.06172839506172839,0,0,0.06172839506172839,70.24691358024693,0)" xlink:href="#O"/><use transform="matrix(0.06172839506172839,0,0,0.06172839506172839,77.59259259259261,0)" xlink:href="#U"/><use transform="matrix(0.06172839506172839,0,0,0.06172839506172839,89.9382716049383,0)" xlink:href="#M"/><use transform="matrix(0.06172839506172839,0,0,0.06172839506172839,105.92592592592595,0)" xlink:href="#R"/><use transform="matrix(0.06172839506172839,0,0,0.06172839506172839,110.8024691358025,0)" xlink:href="#aA"/><use transform="matrix(0.06172839506172839,0,0,0.06172839506172839,123.14814814814818,0)" xlink:href="#aa"/></g><g id="s"><use transform="matrix(0.010850694444444444,0,0,0.010850694444444444,0,0)" xlink:href="#at"/><use transform="matrix(0.010850694444444444,0,0,0.010850694444444444,11.979166666666666,0)" xlink:href="#au"/><use transform="matrix(0.010850694444444444,0,0,0.010850694444444444,20.41015625,0)" xlink:href="#av"/><use transform="matrix(0.010850694444444444,0,0,0.010850694444444444,32.6171875,0)" xlink:href="#ar"/><use transform="matrix(0.010850694444444444,0,0,0.010850694444444444,43.66319444444444,0)" xlink:href="#aw"/><use transform="matrix(0.010850694444444444,0,0,0.010850694444444444,50.30381944444444,0)" xlink:href="#av"/></g><path fill="#333" d="M127-220V0H93v-220H8v-28h204v28h-85" id="aD"/><path fill="#333" d="M141 0L90-78 38 0H4l68-98-65-92h35l48 74 47-74h35l-64 92 68 98h-35" id="aE"/><path fill="#333" d="M101-251c82-7 93 87 43 132L82-64C71-53 59-42 53-27h129V0H18c2-99 128-94 128-182 0-28-16-43-45-43s-46 15-49 41l-32-3c6-41 34-60 81-64" id="aF"/><g id="t"><use transform="matrix(0.06172839506172839,0,0,0.06172839506172839,0,0)" xlink:href="#aD"/><use transform="matrix(0.06172839506172839,0,0,0.06172839506172839,11.049382716049381,0)" xlink:href="#K"/><use transform="matrix(0.06172839506172839,0,0,0.06172839506172839,23.39506172839506,0)" xlink:href="#aE"/><use transform="matrix(0.06172839506172839,0,0,0.06172839506172839,34.50617283950617,0)" xlink:href="#L"/><use transform="matrix(0.06172839506172839,0,0,0.06172839506172839,40.67901234567901,0)" xlink:href="#T"/><use transform="matrix(0.06172839506172839,0,0,0.06172839506172839,53.02469135802469,0)" xlink:href="#O"/><use transform="matrix(0.06172839506172839,0,0,0.06172839506172839,60.37037037037037,0)" xlink:href="#K"/><use transform="matrix(0.06172839506172839,0,0,0.06172839506172839,72.71604938271605,0)" xlink:href="#aF"/><use transform="matrix(0.06172839506172839,0,0,0.06172839506172839,85.06172839506173,0)" xlink:href="#aC"/></g><path fill="#333" d="M140-251c81 0 123 46 123 126C263-46 219 4 140 4 59 4 17-45 17-125s42-126 123-126zm0 227c63 0 89-41 89-101s-29-99-89-99c-61 0-89 39-89 99S79-25 140-24" id="aG"/><path fill="#333" d="M185-189c-5-48-123-54-124 2 14 75 158 14 163 119 3 78-121 87-175 55-17-10-28-26-33-46l33-7c5 56 141 63 141-1 0-78-155-14-162-118-5-82 145-84 179-34 5 7 8 16 11 25" id="aH"/><path fill="#333" d="M212-179c-10-28-35-45-73-45-59 0-87 40-87 99 0 60 29 101 89 101 43 0 62-24 78-52l27 14C228-24 195 4 139 4 59 4 22-46 18-125c-6-104 99-153 187-111 19 9 31 26 39 46" id="aI"/><g id="u"><use transform="matrix(0.06172839506172839,0,0,0.06172839506172839,0,0)" xlink:href="#Z"/><use transform="matrix(0.06172839506172839,0,0,0.06172839506172839,15.987654320987653,0)" xlink:href="#aG"/><use transform="matrix(0.06172839506172839,0,0,0.06172839506172839,33.2716049382716,0)" xlink:href="#aH"/><use transform="matrix(0.06172839506172839,0,0,0.06172839506172839,48.08641975308642,0)" xlink:href="#aI"/><use transform="matrix(0.06172839506172839,0,0,0.06172839506172839,64.07407407407408,0)" xlink:href="#N"/><use transform="matrix(0.06172839506172839,0,0,0.06172839506172839,76.41975308641976,0)" xlink:href="#aA"/><use transform="matrix(0.06172839506172839,0,0,0.06172839506172839,88.76543209876544,0)" xlink:href="#aA"/><use transform="matrix(0.06172839506172839,0,0,0.06172839506172839,101.11111111111113,0)" xlink:href="#K"/><use transform="matrix(0.06172839506172839,0,0,0.06172839506172839,113.45679012345681,0)" xlink:href="#X"/><use transform="matrix(0.06172839506172839,0,0,0.06172839506172839,124.56790123456793,0)" xlink:href="#L"/><use transform="matrix(0.06172839506172839,0,0,0.06172839506172839,130.74074074074076,0)" xlink:href="#R"/><use transform="matrix(0.06172839506172839,0,0,0.06172839506172839,135.6172839506173,0)" xlink:href="#N"/><use transform="matrix(0.06172839506172839,0,0,0.06172839506172839,147.96296296296296,0)" xlink:href="#aA"/></g><path fill="#333" d="M115-194c55 1 70 41 70 98S169 2 115 4C84 4 66-9 55-30l1 105H24l-1-265h31l2 30c10-21 28-34 59-34zm-8 174c40 0 45-34 45-75s-6-73-45-74c-42 0-51 32-51 76 0 43 10 73 51 73" id="aJ"/><g id="v"><use transform="matrix(0.06172839506172839,0,0,0.06172839506172839,0,0)" xlink:href="#Z"/><use transform="matrix(0.06172839506172839,0,0,0.06172839506172839,15.987654320987653,0)" xlink:href="#N"/><use transform="matrix(0.06172839506172839,0,0,0.06172839506172839,28.333333333333332,0)" xlink:href="#S"/><use transform="matrix(0.06172839506172839,0,0,0.06172839506172839,39.44444444444444,0)" xlink:href="#aD"/><use transform="matrix(0.06172839506172839,0,0,0.06172839506172839,50.49382716049383,0)" xlink:href="#N"/><use transform="matrix(0.06172839506172839,0,0,0.06172839506172839,62.839506172839506,0)" xlink:href="#aJ"/><use transform="matrix(0.06172839506172839,0,0,0.06172839506172839,75.18518518518519,0)" xlink:href="#R"/><use transform="matrix(0.06172839506172839,0,0,0.06172839506172839,80.06172839506173,0)" xlink:href="#X"/><use transform="matrix(0.06172839506172839,0,0,0.06172839506172839,91.17283950617285,0)" xlink:href="#aH"/><use transform="matrix(0.06172839506172839,0,0,0.06172839506172839,105.98765432098766,0)" xlink:href="#L"/><use transform="matrix(0.06172839506172839,0,0,0.06172839506172839,112.1604938271605,0)" xlink:href="#U"/><use transform="matrix(0.06172839506172839,0,0,0.06172839506172839,124.50617283950618,0)" xlink:href="#L"/><use transform="matrix(0.06172839506172839,0,0,0.06172839506172839,130.679012345679,0)" xlink:href="#K"/></g><path fill="#333" d="M892-988c1-180-155-261-350-261-239 0-359 83-359 250 0 109 72 186 218 225 134 36 273 57 404 101 148 49 217 165 217 318 0 218-259 377-488 377C285 22 54-135 53-369h130c6 176 157 261 349 261 178 0 360-88 360-250 0-109-72-188-217-228-134-37-272-59-404-103C123-738 53-851 53-998c0-227 241-381 478-381 258 0 497 146 491 391H892" id="aK"/><path fill="#333" d="M881-477c0-189-160-372-351-372-189 0-348 181-348 372s160 369 348 369 351-180 351-369zm-829-1c0-256 220-501 478-501 257 0 481 246 481 502S785 22 530 22C276 22 52-223 52-478" id="aL"/><g id="w"><use transform="matrix(0.010850694444444444,0,0,0.010850694444444444,0,0)" xlink:href="#aK"/><use transform="matrix(0.010850694444444444,0,0,0.010850694444444444,12.20703125,0)" xlink:href="#aw"/><use transform="matrix(0.010850694444444444,0,0,0.010850694444444444,18.84765625,0)" xlink:href="#aL"/><use transform="matrix(0.010850694444444444,0,0,0.010850694444444444,31.0546875,0)" xlink:href="#au"/><use transform="matrix(0.010850694444444444,0,0,0.010850694444444444,39.48567708333333,0)" xlink:href="#av"/></g><path fill="#333" d="M865-1355v130H204v424h531v134H204V0H74v-1355h791" id="aM"/><path fill="#333" d="M240-1205c-40 0-79-36-79-76s39-76 79-76c41 0 78 35 78 76s-37 76-78 76zM47-957h257V0H174v-827H47v-130" id="aN"/><path fill="#333" d="M545-849c-196 0-341 171-341 371V0H74v-957h130v174c77-131 190-196 341-196 285 0 449 200 449 493V0H862v-478c2-219-106-371-317-371" id="aO"/><path fill="#333" d="M-2-478c0-256 249-501 505-501 147 0 261 65 343 196v-572h132V0H846v-174C761-43 645 22 498 22 243 22-2-223-2-478zm843 0c0-191-151-371-338-371S128-665 128-478s183 370 370 370c188 0 343-180 343-370" id="aP"/><g id="x"><use transform="matrix(0.010850694444444444,0,0,0.010850694444444444,0,0)" xlink:href="#aM"/><use transform="matrix(0.010850694444444444,0,0,0.010850694444444444,10.015190972222221,0)" xlink:href="#aN"/><use transform="matrix(0.010850694444444444,0,0,0.010850694444444444,14.35546875,0)" xlink:href="#aO"/><use transform="matrix(0.010850694444444444,0,0,0.010850694444444444,26.475694444444443,0)" xlink:href="#aP"/></g><g id="y"><use transform="matrix(0.06172839506172839,0,0,0.06172839506172839,0,0)" xlink:href="#ab"/><use transform="matrix(0.06172839506172839,0,0,0.06172839506172839,6.172839506172839,0)" xlink:href="#Q"/><use transform="matrix(0.06172839506172839,0,0,0.06172839506172839,20.555555555555554,0)" xlink:href="#R"/><use transform="matrix(0.06172839506172839,0,0,0.06172839506172839,25.432098765432094,0)" xlink:href="#S"/><use transform="matrix(0.06172839506172839,0,0,0.06172839506172839,36.5432098765432,0)" xlink:href="#T"/><use transform="matrix(0.06172839506172839,0,0,0.06172839506172839,48.88888888888888,0)" xlink:href="#U"/><use transform="matrix(0.06172839506172839,0,0,0.06172839506172839,61.234567901234556,0)" xlink:href="#V"/><use transform="matrix(0.06172839506172839,0,0,0.06172839506172839,66.1111111111111,0)" xlink:href="#W"/><use transform="matrix(0.06172839506172839,0,0,0.06172839506172839,79.62962962962962,0)" xlink:href="#U"/><use transform="matrix(0.06172839506172839,0,0,0.06172839506172839,91.9753086419753,0)" xlink:href="#X"/><use transform="matrix(0.06172839506172839,0,0,0.06172839506172839,103.08641975308642,0)" xlink:href="#L"/><use transform="matrix(0.06172839506172839,0,0,0.06172839506172839,109.25925925925925,0)" xlink:href="#N"/><use transform="matrix(0.06172839506172839,0,0,0.06172839506172839,121.60493827160494,0)" xlink:href="#O"/><use transform="matrix(0.06172839506172839,0,0,0.06172839506172839,128.9506172839506,0)" xlink:href="#Y"/></g><path fill="#333" d="M62-168c30 0 50 19 50 48S92-70 62-70c-29 0-48-21-48-50s20-48 48-48" id="aQ"/><use transform="matrix(0.05555555555555555,0,0,0.05555555555555555,0,0)" xlink:href="#aQ" id="z"/><g id="A"><use transform="matrix(0.05555555555555555,0,0,0.05555555555555555,0,0)" xlink:href="#aH"/><use transform="matrix(0.05555555555555555,0,0,0.05555555555555555,13.333333333333332,0)" xlink:href="#K"/><use transform="matrix(0.05555555555555555,0,0,0.05555555555555555,24.444444444444443,0)" xlink:href="#L"/><use transform="matrix(0.05555555555555555,0,0,0.05555555555555555,30,0)" xlink:href="#L"/><use transform="matrix(0.05555555555555555,0,0,0.05555555555555555,35.55555555555556,0)" xlink:href="#R"/><use transform="matrix(0.05555555555555555,0,0,0.05555555555555555,39.94444444444444,0)" xlink:href="#aA"/><use transform="matrix(0.05555555555555555,0,0,0.05555555555555555,51.05555555555556,0)" xlink:href="#aa"/><use transform="matrix(0.05555555555555555,0,0,0.05555555555555555,62.16666666666668,0)" xlink:href="#S"/></g><g id="B"><use transform="matrix(0.05555555555555555,0,0,0.05555555555555555,0,0)" xlink:href="#aI"/><use transform="matrix(0.05555555555555555,0,0,0.05555555555555555,14.388888888888888,0)" xlink:href="#T"/><use transform="matrix(0.05555555555555555,0,0,0.05555555555555555,25.5,0)" xlink:href="#O"/><use transform="matrix(0.05555555555555555,0,0,0.05555555555555555,32.111111111111114,0)" xlink:href="#O"/><use transform="matrix(0.05555555555555555,0,0,0.05555555555555555,38.72222222222223,0)" xlink:href="#K"/><use transform="matrix(0.05555555555555555,0,0,0.05555555555555555,49.83333333333334,0)" xlink:href="#aA"/><use transform="matrix(0.05555555555555555,0,0,0.05555555555555555,60.94444444444446,0)" xlink:href="#L"/></g><g id="C"><use transform="matrix(0.05555555555555555,0,0,0.05555555555555555,0,0)" xlink:href="#Q"/><use transform="matrix(0.05555555555555555,0,0,0.05555555555555555,12.944444444444443,0)" xlink:href="#R"/><use transform="matrix(0.05555555555555555,0,0,0.05555555555555555,17.333333333333332,0)" xlink:href="#S"/><use transform="matrix(0.05555555555555555,0,0,0.05555555555555555,27.333333333333332,0)" xlink:href="#T"/><use transform="matrix(0.05555555555555555,0,0,0.05555555555555555,38.44444444444444,0)" xlink:href="#U"/><use transform="matrix(0.05555555555555555,0,0,0.05555555555555555,49.55555555555556,0)" xlink:href="#V"/></g><g id="D"><use transform="matrix(0.06172839506172839,0,0,0.06172839506172839,0,0)" xlink:href="#Z"/><use transform="matrix(0.06172839506172839,0,0,0.06172839506172839,15.987654320987653,0)" xlink:href="#N"/><use transform="matrix(0.06172839506172839,0,0,0.06172839506172839,28.333333333333332,0)" xlink:href="#S"/><use transform="matrix(0.06172839506172839,0,0,0.06172839506172839,39.44444444444444,0)" xlink:href="#aD"/><use transform="matrix(0.06172839506172839,0,0,0.06172839506172839,50.49382716049383,0)" xlink:href="#X"/><use transform="matrix(0.06172839506172839,0,0,0.06172839506172839,61.60493827160494,0)" xlink:href="#aJ"/><use transform="matrix(0.06172839506172839,0,0,0.06172839506172839,73.95061728395062,0)" xlink:href="#aI"/><use transform="matrix(0.06172839506172839,0,0,0.06172839506172839,89.93827160493828,0)" xlink:href="#N"/><use transform="matrix(0.06172839506172839,0,0,0.06172839506172839,102.28395061728396,0)" xlink:href="#aA"/><use transform="matrix(0.06172839506172839,0,0,0.06172839506172839,114.62962962962965,0)" xlink:href="#aA"/><use transform="matrix(0.06172839506172839,0,0,0.06172839506172839,126.97530864197533,0)" xlink:href="#K"/><use transform="matrix(0.06172839506172839,0,0,0.06172839506172839,139.32098765432102,0)" xlink:href="#X"/><use transform="matrix(0.06172839506172839,0,0,0.06172839506172839,150.43209876543213,0)" xlink:href="#L"/><use transform="matrix(0.06172839506172839,0,0,0.06172839506172839,156.60493827160496,0)" xlink:href="#N"/><use transform="matrix(0.06172839506172839,0,0,0.06172839506172839,168.95061728395063,0)" xlink:href="#O"/></g><path fill="#333" d="M240 0l2-218c-23 76-54 145-80 218h-23L58-218 59 0H30v-248h44l77 211c21-75 51-140 76-211h43V0h-30" id="aR"/><path fill="#333" d="M9 0v-24l116-142H16v-24h144v24L44-24h123V0H9" id="aS"/><g id="E"><use transform="matrix(0.06172839506172839,0,0,0.06172839506172839,0,0)" xlink:href="#aR"/><use transform="matrix(0.06172839506172839,0,0,0.06172839506172839,18.456790123456788,0)" xlink:href="#K"/><use transform="matrix(0.06172839506172839,0,0,0.06172839506172839,30.80246913580247,0)" xlink:href="#S"/><use transform="matrix(0.06172839506172839,0,0,0.06172839506172839,41.91358024691358,0)" xlink:href="#S"/><use transform="matrix(0.06172839506172839,0,0,0.06172839506172839,53.0246913580247,0)" xlink:href="#U"/><use transform="matrix(0.06172839506172839,0,0,0.06172839506172839,65.37037037037038,0)" xlink:href="#aa"/><use transform="matrix(0.06172839506172839,0,0,0.06172839506172839,77.71604938271606,0)" xlink:href="#K"/><use transform="matrix(0.06172839506172839,0,0,0.06172839506172839,90.06172839506175,0)" xlink:href="#Q"/><use transform="matrix(0.06172839506172839,0,0,0.06172839506172839,104.44444444444446,0)" xlink:href="#R"/><use transform="matrix(0.06172839506172839,0,0,0.06172839506172839,109.320987654321,0)" xlink:href="#S"/><use transform="matrix(0.06172839506172839,0,0,0.06172839506172839,120.43209876543212,0)" xlink:href="#T"/><use transform="matrix(0.06172839506172839,0,0,0.06172839506172839,132.7777777777778,0)" xlink:href="#U"/><use transform="matrix(0.06172839506172839,0,0,0.06172839506172839,145.12345679012347,0)" xlink:href="#V"/><use transform="matrix(0.06172839506172839,0,0,0.06172839506172839,150,0)" xlink:href="#R"/><use transform="matrix(0.06172839506172839,0,0,0.06172839506172839,154.87654320987653,0)" xlink:href="#aS"/><use transform="matrix(0.06172839506172839,0,0,0.06172839506172839,165.98765432098764,0)" xlink:href="#U"/><use transform="matrix(0.06172839506172839,0,0,0.06172839506172839,178.33333333333331,0)" xlink:href="#L"/><use transform="matrix(0.06172839506172839,0,0,0.06172839506172839,184.50617283950615,0)" xlink:href="#R"/><use transform="matrix(0.06172839506172839,0,0,0.06172839506172839,189.38271604938268,0)" xlink:href="#N"/><use transform="matrix(0.06172839506172839,0,0,0.06172839506172839,201.72839506172835,0)" xlink:href="#aA"/><use transform="matrix(0.06172839506172839,0,0,0.06172839506172839,214.07407407407402,0)" xlink:href="#S"/></g><path fill="#333" d="M132 24c-76-289-76-715 0-1004 58-221 148-346 273-375v109c-131 55-197 311-197 768s66 713 197 768v109C280 370 190 245 132 24" id="aT"/><path fill="#333" d="M395 0L60-957h137l259 739 167-476-93-263h137l262 744 258-744h138L991 0H866L692-498 516 0H395" id="aU"/><path fill="#333" d="M898-260C898-89 674 20 489 20 280 20 75-78 57-254l126-27c2 114 176 171 313 171 113 0 265-50 265-150 0-60-40-102-120-127-21-6-104-22-252-42-166-23-242-71-302-158-134-339 365-481 654-327 94 50 148 120 161 213l-126 27c-25-116-134-174-329-174-116 0-251 47-251 149 0 73 54 127 164 147 83 15 168 18 253 29 83 11 158 46 225 101 40 33 60 87 60 162" id="aV"/><g id="F"><use transform="matrix(0.010850694444444444,0,0,0.010850694444444444,0,0)" xlink:href="#aT"/><use transform="matrix(0.010850694444444444,0,0,0.010850694444444444,5.262586805555555,0)" xlink:href="#aU"/><use transform="matrix(0.010850694444444444,0,0,0.010850694444444444,20.87673611111111,0)" xlink:href="#ar"/><use transform="matrix(0.010850694444444444,0,0,0.010850694444444444,32.443576388888886,0)" xlink:href="#aV"/></g><path fill="#333" d="M177-478c0 192 146 370 333 370s324-179 324-370c0-193-136-371-324-371-187 0-333 180-333 371zm332 742c191 3 334-157 330-347v-91C756-43 647 22 510 22 246 22 47-209 47-478c0-259 208-501 463-501 140 0 250 67 329 201v-179h130v888c6 260-201 463-461 463C272 394 95 221 61 14L188-7c30 151 149 268 321 271" id="aW"/><g id="G"><use transform="matrix(0.010850694444444444,0,0,0.010850694444444444,0,0)" xlink:href="#au"/><use transform="matrix(0.010850694444444444,0,0,0.010850694444444444,8.430989583333334,0)" xlink:href="#av"/><use transform="matrix(0.010850694444444444,0,0,0.010850694444444444,20.638020833333336,0)" xlink:href="#aW"/><use transform="matrix(0.010850694444444444,0,0,0.010850694444444444,32.57378472222223,0)" xlink:href="#aN"/><use transform="matrix(0.010850694444444444,0,0,0.010850694444444444,36.91406250000001,0)" xlink:href="#aV"/><use transform="matrix(0.010850694444444444,0,0,0.010850694444444444,47.797309027777786,0)" xlink:href="#aw"/><use transform="matrix(0.010850694444444444,0,0,0.010850694444444444,54.437934027777786,0)" xlink:href="#av"/><use transform="matrix(0.010850694444444444,0,0,0.010850694444444444,66.64496527777779,0)" xlink:href="#au"/><use transform="matrix(0.010850694444444444,0,0,0.010850694444444444,75.07595486111111,0)" xlink:href="#av"/><use transform="matrix(0.010850694444444444,0,0,0.010850694444444444,87.28298611111111,0)" xlink:href="#aP"/></g><g id="H"><use transform="matrix(0.010850694444444444,0,0,0.010850694444444444,0,0)" xlink:href="#aL"/><use transform="matrix(0.010850694444444444,0,0,0.010850694444444444,12.20703125,0)" xlink:href="#aO"/></g><path fill="#333" d="M483-108c191 0 291-169 291-370v-479h130V0H774v-137C701-31 604 22 483 22 219 22 67-183 67-456v-501h130v501c-4 182 112 348 286 348" id="aX"/><path fill="#333" d="M209-478c0 191 154 370 342 370 187 0 348-181 348-370S737-849 551-849c-188 0-342 180-342 371zm820 0c0 258-224 500-478 500-147 0-262-65-347-196v573H74V-957h130v174c85-131 200-196 347-196 256 0 478 244 478 501" id="aY"/><path fill="#333" d="M329-978c76 289 76 715 0 1004-58 221-148 346-273 375V292c131-55 197-311 197-768s-66-713-197-768v-109c125 29 215 154 273 375" id="aZ"/><g id="I"><use transform="matrix(0.010850694444444444,0,0,0.010850694444444444,0,0)" xlink:href="#aV"/><use transform="matrix(0.010850694444444444,0,0,0.010850694444444444,10.883246527777777,0)" xlink:href="#aw"/><use transform="matrix(0.010850694444444444,0,0,0.010850694444444444,17.52387152777778,0)" xlink:href="#ar"/><use transform="matrix(0.010850694444444444,0,0,0.010850694444444444,29.09071180555556,0)" xlink:href="#au"/><use transform="matrix(0.010850694444444444,0,0,0.010850694444444444,38.38975694444444,0)" xlink:href="#aw"/><use transform="matrix(0.010850694444444444,0,0,0.010850694444444444,45.03038194444444,0)" xlink:href="#aX"/><use transform="matrix(0.010850694444444444,0,0,0.010850694444444444,56.315104166666664,0)" xlink:href="#aY"/><use transform="matrix(0.010850694444444444,0,0,0.010850694444444444,68.39192708333333,0)" xlink:href="#aZ"/></g></defs></g></svg>